<svg width="37" height="19" viewBox="0 0 37 19" fill="none" xmlns="http://www.w3.org/2000/svg">
<path d="M28.5909 15.9773L9.25 15.9773C7.46582 15.9773 5.75471 15.2685 4.4931 14.0069C3.23149 12.7453 2.52273 11.0342 2.52273 9.25C2.52273 7.46581 3.23149 5.75471 4.4931 4.4931C5.75471 3.23149 7.46582 2.52273 9.25 2.52273L30.2727 2.52273C31.3878 2.52273 32.4573 2.9657 33.2458 3.75421C34.0343 4.54271 34.4773 5.61216 34.4773 6.72727C34.4773 7.84239 34.0343 8.91183 33.2458 9.70033C32.4573 10.4888 31.3878 10.9318 30.2727 10.9318L12.6136 10.9318C12.1676 10.9318 11.7398 10.7546 11.4244 10.4392C11.109 10.1238 10.9318 9.69604 10.9318 9.25C10.9318 8.80395 11.109 8.37618 11.4244 8.06077C11.7398 7.74537 12.1676 7.56818 12.6136 7.56818L28.5909 7.56818L28.5909 5.04545L12.6136 5.04545C11.4985 5.04545 10.4291 5.48843 9.64058 6.27694C8.85207 7.06544 8.40909 8.13488 8.40909 9.25C8.40909 10.3651 8.85207 11.4346 9.64057 12.2231C10.4291 13.0116 11.4985 13.4545 12.6136 13.4545L30.2727 13.4545C32.0569 13.4545 33.768 12.7458 35.0296 11.4842C36.2912 10.2226 37 8.51146 37 6.72727C37 4.94309 36.2912 3.23198 35.0296 1.97037C33.768 0.708764 32.0569 -2.16069e-07 30.2727 -2.94058e-07L9.25 -1.21299e-06C6.79675 -1.32023e-06 4.44397 0.974549 2.70926 2.70926C0.974552 4.44397 -2.97095e-07 6.79675 -4.0433e-07 9.25C-5.11565e-07 11.7033 0.974552 14.056 2.70926 15.7907C4.44397 17.5254 6.79675 18.5 9.25 18.5L28.5909 18.5L28.5909 15.9773Z" fill="#FF1616"/>
</svg>
