<svg width="102" height="36" viewBox="0 0 102 36" fill="none" xmlns="http://www.w3.org/2000/svg">
<path d="M23.6466 31.1786C27.5742 31.1786 30.7581 27.9479 30.7581 23.9625C30.7581 19.9772 27.5742 16.7465 23.6466 16.7465C19.7191 16.7465 16.5352 19.9772 16.5352 23.9625C16.5352 27.9479 19.7191 31.1786 23.6466 31.1786Z" fill="#04E061"/>
<path d="M10.279 27.3215C12.1072 27.3215 13.5892 25.8177 13.5892 23.9626C13.5892 22.1075 12.1072 20.6036 10.279 20.6036C8.4508 20.6036 6.96875 22.1075 6.96875 23.9626C6.96875 25.8177 8.4508 27.3215 10.279 27.3215Z" fill="#A169F7"/>
<path d="M23.6467 15.0429C26.1747 15.0429 28.224 12.9635 28.224 10.3983C28.224 7.83314 26.1747 5.75366 23.6467 5.75366C21.1187 5.75366 19.0693 7.83314 19.0693 10.3983C19.0693 12.9635 21.1187 15.0429 23.6467 15.0429Z" fill="#FF6163"/>
<path d="M10.279 16.3286C13.5068 16.3286 16.1234 13.6735 16.1234 10.3983C16.1234 7.12301 13.5068 4.4679 10.279 4.4679C7.0512 4.4679 4.43457 7.12301 4.43457 10.3983C4.43457 13.6735 7.0512 16.3286 10.279 16.3286Z" fill="#00AAFF"/>
<path d="M49.2469 27.2823H52.9386L46.1017 8.39258H43.4241L36.5859 27.2829H40.2779L41.5836 23.6771H47.9412L49.2469 27.2829L42.6119 20.8344L44.7627 14.8944L46.9123 20.8344H42.6119L49.2469 27.2823ZM62.0901 14.3859L58.6927 23.7697L55.2969 14.3859H51.8283L56.4981 27.2823H60.8879L65.5571 14.3859H62.0894M67.0089 14.3859H70.4775V27.2823H67.0089V14.3859Z" fill="black"/>
<path d="M68.7547 12.9214C69.9881 12.9214 70.9879 11.9069 70.9879 10.6554C70.9879 9.40384 69.9881 8.38928 68.7547 8.38928C67.5213 8.38928 66.5215 9.40384 66.5215 10.6554C66.5215 11.9069 67.5213 12.9214 68.7547 12.9214Z" fill="black"/>
<path d="M82.7241 17.228V14.3859H78.569V10.8284H75.1026V14.3859H72.3594V17.228H75.1026V22.7765C75.1026 25.6385 76.5129 27.5488 80.1139 27.5488C81.5045 27.5488 82.7241 27.0306 82.7241 27.0306L82.3028 24.2461C82.3028 24.2461 81.6202 24.4531 80.7807 24.4531C79.7518 24.4531 78.569 24.0031 78.569 22.5599V17.2277L82.7241 17.228ZM90.6782 24.3345C88.7443 24.3345 87.1773 22.7788 87.1773 20.8598C87.1773 18.9425 88.7443 17.3865 90.6776 17.3865C92.6121 17.3865 94.1785 18.9428 94.1785 20.8602C94.1785 22.7791 92.6121 24.3345 90.6782 24.3345ZM90.6782 14.0568C86.9188 14.0568 83.8699 17.083 83.8699 20.8132C83.8699 24.545 86.9188 27.5697 90.6779 27.5697C94.4354 27.5697 97.4843 24.545 97.4843 20.8132C97.4843 17.083 94.4354 14.0568 90.6776 14.0568" fill="black"/>
</svg>
