<svg width="31" height="31" viewBox="0 0 31 31" fill="none" xmlns="http://www.w3.org/2000/svg">
<path d="M10.2783 10.2787V8.99389C10.2783 7.63083 10.8198 6.32361 11.7836 5.35979C12.7474 4.39596 14.0547 3.85449 15.4177 3.85449C16.7808 3.85449 18.088 4.39596 19.0518 5.35979C20.0156 6.32361 20.5571 7.63083 20.5571 8.99389V10.2787" stroke="#FF1616" stroke-width="2" stroke-linecap="round"/>
<path fill-rule="evenodd" clip-rule="evenodd" d="M4.60741 9.74657C3.85449 10.4995 3.85449 11.7098 3.85449 14.133V17.9876C3.85449 22.8328 3.85449 25.256 5.36033 26.7605C6.86618 28.2651 9.28812 28.2664 14.1333 28.2664H16.703C21.5481 28.2664 23.9714 28.2664 25.4759 26.7605C26.9805 25.2547 26.9818 22.8328 26.9818 17.9876V14.133C26.9818 11.7098 26.9818 10.4995 26.2288 9.74657C25.4759 8.99365 24.2656 8.99365 21.8424 8.99365H8.99389C6.57066 8.99365 5.36033 8.99365 4.60741 9.74657ZM12.8484 15.4179C12.8484 15.0771 12.7131 14.7503 12.4721 14.5094C12.2312 14.2684 11.9043 14.133 11.5636 14.133C11.2228 14.133 10.896 14.2684 10.6551 14.5094C10.4141 14.7503 10.2787 15.0771 10.2787 15.4179V17.9876C10.2787 18.3284 10.4141 18.6552 10.6551 18.8961C10.896 19.1371 11.2228 19.2724 11.5636 19.2724C11.9043 19.2724 12.2312 19.1371 12.4721 18.8961C12.7131 18.6552 12.8484 18.3284 12.8484 17.9876V15.4179ZM20.5575 15.4179C20.5575 15.0771 20.4222 14.7503 20.1812 14.5094C19.9402 14.2684 19.6134 14.133 19.2727 14.133C18.9319 14.133 18.6051 14.2684 18.3641 14.5094C18.1232 14.7503 17.9878 15.0771 17.9878 15.4179V17.9876C17.9878 18.3284 18.1232 18.6552 18.3641 18.8961C18.6051 19.1371 18.9319 19.2724 19.2727 19.2724C19.6134 19.2724 19.9402 19.1371 20.1812 18.8961C20.4222 18.6552 20.5575 18.3284 20.5575 17.9876V15.4179Z" fill="#FF1616"/>
</svg>
