<svg width="24" height="24" viewBox="-0.5 -0.5 24 24" fill="none" xmlns="http://www.w3.org/2000/svg">
<path d="M16.9819 6.05479H15.1858V4.34202C15.1867 3.85118 15.0425 3.37102 14.7714 2.96186C14.5003 2.5527 14.1143 2.23278 13.6619 2.04228C13.3613 1.91761 13.0393 1.85282 12.7139 1.85156H5.26102C4.93518 1.85278 4.61278 1.91816 4.31221 2.04397C4.01164 2.16979 3.7388 2.35357 3.50925 2.58483C3.27971 2.81609 3.09797 3.0903 2.9744 3.3918C2.85083 3.6933 2.78786 4.01618 2.78908 4.34202V13.6835C2.78786 14.0094 2.85083 14.3323 2.9744 14.6338C3.09797 14.9353 3.27971 15.2095 3.50925 15.4407C3.7388 15.672 4.01164 15.8558 4.31221 15.9816C4.61278 16.1074 4.93518 16.1728 5.26102 16.174H7.05711V17.8868C7.05711 18.5432 7.31725 19.1729 7.78056 19.638C8.24388 20.103 8.8726 20.3655 9.52905 20.368H16.9356C17.5921 20.3655 18.2208 20.103 18.6841 19.638C19.1474 19.1729 19.4076 18.5432 19.4076 17.8868V8.54524C19.4078 7.89581 19.1543 7.27198 18.7012 6.80675C18.248 6.34151 17.6311 6.07169 16.9819 6.05479ZM7.05711 8.54524V14.7853H5.26102C5.11755 14.7841 4.97573 14.7546 4.84365 14.6986C4.71157 14.6426 4.59181 14.5611 4.49123 14.4588C4.39064 14.3565 4.31119 14.2353 4.25742 14.1023C4.20364 13.9693 4.17659 13.827 4.17781 13.6835V4.34202C4.17659 4.19855 4.20364 4.05625 4.25742 3.92324C4.31119 3.79023 4.39064 3.66911 4.49123 3.5668C4.59181 3.4645 4.71157 3.38301 4.84365 3.32698C4.97573 3.27096 5.11755 3.2415 5.26102 3.24029H12.7139C12.8573 3.2415 12.9992 3.27096 13.1312 3.32698C13.2633 3.38301 13.3831 3.4645 13.4837 3.5668C13.5842 3.66911 13.6637 3.79023 13.7175 3.92324C13.7713 4.05625 13.7983 4.19855 13.7971 4.34202V6.05479H9.52905C8.87175 6.05967 8.24304 6.32422 7.77999 6.79074C7.31694 7.25726 7.05709 7.88793 7.05711 8.54524Z" fill="#3454D3"/>
</svg>
