<svg width="32" height="33" viewBox="0 0 32 33" fill="none" xmlns="http://www.w3.org/2000/svg">
<path fill-rule="evenodd" clip-rule="evenodd" d="M6.46711 8.27425C7.69436 7.04737 9.35863 6.35815 11.094 6.35815C12.8293 6.35815 14.4936 7.04737 15.7208 8.27425C15.9608 8.51333 16.2696 8.81088 16.6475 9.16689C17.0244 8.81088 17.3329 8.51333 17.5728 8.27425C18.7949 7.05788 20.4477 6.37297 22.172 6.36835C23.8962 6.36373 25.5526 7.03978 26.7812 8.24958C28.0098 9.45939 28.7113 11.1052 28.7333 12.8293C28.7553 14.5534 28.0959 16.2165 26.8985 17.4573L17.5715 26.7842C17.3261 27.0296 16.9932 27.1675 16.6462 27.1675C16.2991 27.1675 15.9662 27.0296 15.7208 26.7842L6.39382 17.4586C5.19756 16.2248 4.53458 14.5701 4.54805 12.8517C4.56152 11.1332 5.25167 9.48908 6.46711 8.27425Z" fill="#FF1616"/>
</svg>
