<svg width="32" height="32" viewBox="0 0 32 32" fill="none" xmlns="http://www.w3.org/2000/svg">
<path d="M10.667 10.6667V9.33333C10.667 7.91885 11.2289 6.56229 12.2291 5.5621C13.2293 4.5619 14.5858 4 16.0003 4C17.4148 4 18.7714 4.5619 19.7716 5.5621C20.7718 6.56229 21.3337 7.91885 21.3337 9.33333V10.6667" stroke="#FF1616" stroke-width="2" stroke-linecap="round"/>
<path fill-rule="evenodd" clip-rule="evenodd" d="M4.78133 10.1147C4 10.896 4 12.152 4 14.6667V18.6667C4 23.6947 4 26.2094 5.56267 27.7707C7.12533 29.332 9.63867 29.3334 14.6667 29.3334H17.3333C22.3613 29.3334 24.876 29.3334 26.4373 27.7707C27.9987 26.208 28 23.6947 28 18.6667V14.6667C28 12.152 28 10.896 27.2187 10.1147C26.4373 9.33337 25.1813 9.33337 22.6667 9.33337H9.33333C6.81867 9.33337 5.56267 9.33337 4.78133 10.1147ZM13.3333 16C13.3333 15.6464 13.1929 15.3073 12.9428 15.0572C12.6928 14.8072 12.3536 14.6667 12 14.6667C11.6464 14.6667 11.3072 14.8072 11.0572 15.0572C10.8071 15.3073 10.6667 15.6464 10.6667 16V18.6667C10.6667 19.0203 10.8071 19.3595 11.0572 19.6095C11.3072 19.8596 11.6464 20 12 20C12.3536 20 12.6928 19.8596 12.9428 19.6095C13.1929 19.3595 13.3333 19.0203 13.3333 18.6667V16ZM21.3333 16C21.3333 15.6464 21.1929 15.3073 20.9428 15.0572C20.6928 14.8072 20.3536 14.6667 20 14.6667C19.6464 14.6667 19.3072 14.8072 19.0572 15.0572C18.8071 15.3073 18.6667 15.6464 18.6667 16V18.6667C18.6667 19.0203 18.8071 19.3595 19.0572 19.6095C19.3072 19.8596 19.6464 20 20 20C20.3536 20 20.6928 19.8596 20.9428 19.6095C21.1929 19.3595 21.3333 19.0203 21.3333 18.6667V16Z" fill="#FF1616"/>
</svg>
