<svg width="48" height="38" viewBox="-11 0 48 38" fill="none" xmlns="http://www.w3.org/2000/svg">
<path d="M13 18.0656C11.7686 18.0656 10.5877 17.5734 9.717 16.6973C8.8463 15.8211 8.35714 14.6328 8.35714 13.3938C8.35714 12.1547 8.8463 10.9664 9.717 10.0902C10.5877 9.21409 11.7686 8.72188 13 8.72188C14.2314 8.72188 15.4123 9.21409 16.283 10.0902C17.1537 10.9664 17.6429 12.1547 17.6429 13.3938C17.6429 14.0073 17.5228 14.6148 17.2894 15.1816C17.0561 15.7484 16.7141 16.2634 16.283 16.6973C15.8519 17.1311 15.34 17.4752 14.7767 17.71C14.2134 17.9448 13.6097 18.0656 13 18.0656ZM13 0.3125C9.55219 0.3125 6.24558 1.6907 3.80761 4.14391C1.36964 6.59712 0 9.92439 0 13.3938C0 23.2047 13 37.6875 13 37.6875C13 37.6875 26 23.2047 26 13.3938C26 9.92439 24.6304 6.59712 22.1924 4.14391C19.7544 1.6907 16.4478 0.3125 13 0.3125Z" fill="#fff"/>
</svg>
