<svg width="412" height="204" viewBox="0 0 412 204" fill="none" xmlns="http://www.w3.org/2000/svg">
<path d="M140.14 45.0059H140.139H140.137C140.135 45.0057 140.131 45.0052 140.127 45.0049C140.118 45.0043 140.105 45.0031 140.087 45.002C140.051 44.9997 139.998 44.9964 139.927 44.9922C139.785 44.9838 139.573 44.9723 139.295 44.958C138.738 44.9295 137.914 44.8914 136.851 44.8555C134.723 44.7836 131.635 44.7184 127.799 44.7451C120.127 44.7986 109.467 45.2205 97.5166 46.6924C73.5939 49.6391 44.5973 56.7842 24.0215 73.5234L23.1875 72.6797L23.6455 73.0615C23.1964 72.6869 23.1882 72.6793 23.1885 72.6787L23.1943 72.6729C23.1977 72.6688 23.2018 72.6625 23.208 72.6553C23.2205 72.6405 23.2397 72.6195 23.2637 72.5918C23.3117 72.5363 23.3829 72.4548 23.4775 72.3496C23.6668 72.1392 23.9498 71.8323 24.3301 71.4414C25.091 70.6593 26.2407 69.5398 27.8057 68.1807C30.9357 65.4622 35.726 61.7836 42.3857 57.9219C55.6948 50.2045 76.4599 41.7601 106.341 38.7744C132.099 28.5549 158.455 16.065 188.958 12.4902C219.484 8.91292 271.822 14.5737 303.056 23.6416L305.017 24.2109L303.058 24.7852L302.89 24.2139L303.057 24.7852L303.055 24.7861C303.053 24.7866 303.05 24.7871 303.047 24.7881C303.04 24.7901 303.03 24.793 303.017 24.7969C302.99 24.8046 302.951 24.8169 302.898 24.832C302.794 24.8625 302.638 24.9071 302.434 24.9658C302.025 25.0832 301.423 25.2554 300.646 25.4736C299.093 25.9101 296.842 26.5325 294.05 27.2744C288.466 28.7582 280.714 30.7226 272.048 32.6455C254.735 36.4868 233.696 40.1786 218.985 39.5068L218.979 38.3164C229.612 37.724 241.686 34.368 251.127 31.1445C255.842 29.5347 259.89 27.9611 262.758 26.791C263.982 26.2917 264.99 25.864 265.744 25.54C231.391 16.6104 207.926 15.8351 182.898 20.4941C170.175 22.8627 153.729 27.8246 140.446 32.2021C133.809 34.3896 127.968 36.4286 123.787 37.9209C121.697 38.6669 120.022 39.2765 118.869 39.6992C118.834 39.7122 118.798 39.7246 118.764 39.7373C121.703 40.5188 126.339 41.4226 130.585 42.1836C133.17 42.6469 135.594 43.0547 137.372 43.3467C138.261 43.4926 138.988 43.61 139.492 43.6904C139.745 43.7307 139.942 43.7612 140.075 43.7822C140.142 43.7927 140.193 43.8013 140.228 43.8066C140.244 43.8093 140.257 43.8112 140.266 43.8125C140.27 43.8132 140.273 43.8131 140.275 43.8135L140.278 43.8145L141.438 43.9951L140.409 45.0234L140.14 45.0059ZM316.505 26.7656C323.431 28.6751 338.154 30.3076 352.78 31.0322C360.083 31.394 367.343 31.529 373.568 31.3604C379.81 31.1913 384.964 30.7185 388.082 29.8838L389.59 29.4795L388.734 30.7852C387.955 31.9747 386.703 32.9414 385.321 33.7217C383.933 34.5061 382.367 35.129 380.907 35.6094C379.445 36.0905 378.075 36.4338 377.071 36.6572C376.869 36.7022 376.681 36.7409 376.511 36.7764C376.904 37.203 377.427 37.7928 378.03 38.5361C379.375 40.1915 381.128 42.6073 382.771 45.6523C386.057 51.7407 388.916 60.3766 387.134 70.4941L386.733 72.7646L385.983 70.584C381.225 56.7535 373.688 48.1681 363.615 43.1113C353.514 38.0404 340.798 36.4856 325.627 36.8594C310.459 37.2331 292.914 39.5311 273.18 42.1094C253.456 44.6863 231.565 47.5403 207.753 49.0127L207.661 47.8242C227.457 45.9989 249.763 43.181 269.531 39.5967C289.322 36.0082 306.497 31.663 316.077 26.8086L316.283 26.7041L316.505 26.7656Z" fill="black" stroke="black" stroke-width="1.19186"/>
<path d="M104.552 52.6924C118.244 52.6924 130.418 58.5794 136.888 67.3984L137.584 68.3467H127.561L127.382 68.1357C121.587 61.2958 111.621 56.7354 100.255 56.7354C88.93 56.7354 79.1657 61.1773 73.3389 67.8848C73.3285 67.8986 73.318 67.9129 73.3076 67.9268L73.1289 68.166H71.5215L72.3711 67.1807C72.3861 67.1632 72.4019 67.1463 72.417 67.1289C78.9325 58.463 90.9039 52.6925 104.552 52.6924Z" fill="#FF1616" stroke="#FF1616" stroke-width="1.19186"/>
<path d="M320.676 48.2695C335.505 48.2696 348.711 54.1432 355.73 62.957L356.501 63.9238H345.702L345.524 63.7314C339.224 56.8846 328.389 52.3125 316.017 52.3125C303.644 52.3126 292.995 56.7986 286.67 63.5547L285.772 62.7725C292.822 54.0644 305.846 48.2695 320.676 48.2695Z" fill="#FF1616" stroke="#FF1616" stroke-width="1.19186"/>
<rect x="2.73227" y="98.6312" width="406.535" height="91.8843" stroke="black" stroke-width="3.46454"/>
<path d="M381.578 133.371C381.347 131.206 380.372 129.521 378.654 128.315C376.952 127.109 374.738 126.506 372.012 126.506C370.096 126.506 368.452 126.795 367.081 127.373C365.709 127.952 364.66 128.736 363.933 129.728C363.207 130.719 362.835 131.851 362.818 133.123C362.818 134.18 363.058 135.097 363.537 135.874C364.033 136.65 364.702 137.311 365.544 137.856C366.387 138.385 367.32 138.831 368.345 139.194C369.369 139.558 370.401 139.863 371.442 140.111L376.2 141.301C378.117 141.747 379.959 142.35 381.727 143.11C383.511 143.87 385.105 144.828 386.51 145.985C387.93 147.141 389.054 148.537 389.88 150.173C390.706 151.808 391.119 153.725 391.119 155.922C391.119 158.896 390.359 161.514 388.839 163.778C387.319 166.025 385.122 167.784 382.247 169.056C379.389 170.312 375.928 170.94 371.864 170.94C367.915 170.94 364.487 170.328 361.579 169.106C358.688 167.883 356.425 166.099 354.789 163.753C353.17 161.407 352.294 158.549 352.162 155.179H361.207C361.34 156.946 361.885 158.417 362.843 159.59C363.801 160.763 365.049 161.638 366.585 162.217C368.138 162.795 369.873 163.084 371.789 163.084C373.788 163.084 375.54 162.787 377.043 162.192C378.563 161.58 379.752 160.738 380.612 159.664C381.471 158.574 381.908 157.302 381.925 155.848C381.908 154.526 381.52 153.436 380.76 152.576C380 151.701 378.935 150.974 377.563 150.396C376.209 149.801 374.623 149.272 372.805 148.81L367.031 147.323C362.851 146.249 359.547 144.622 357.118 142.441C354.706 140.243 353.5 137.327 353.5 133.693C353.5 130.702 354.31 128.084 355.929 125.837C357.565 123.59 359.787 121.847 362.595 120.608C365.404 119.352 368.584 118.725 372.136 118.725C375.738 118.725 378.893 119.352 381.603 120.608C384.329 121.847 386.468 123.574 388.021 125.787C389.574 127.985 390.376 130.512 390.425 133.371H381.578Z" fill="black"/>
<path d="M308.608 170.171V119.418H327.641C331.54 119.418 334.811 120.096 337.454 121.451C340.114 122.805 342.122 124.705 343.476 127.15C344.848 129.579 345.533 132.412 345.533 135.65C345.533 138.905 344.839 141.73 343.452 144.126C342.08 146.505 340.056 148.347 337.38 149.652C334.704 150.941 331.416 151.585 327.517 151.585H313.961V143.952H326.278C328.558 143.952 330.425 143.638 331.878 143.011C333.332 142.366 334.406 141.433 335.1 140.21C335.81 138.971 336.166 137.451 336.166 135.65C336.166 133.85 335.81 132.313 335.1 131.041C334.39 129.752 333.308 128.778 331.854 128.117C330.4 127.439 328.525 127.101 326.228 127.101H317.802V170.171H308.608ZM334.827 147.174L347.392 170.171H337.132L324.791 147.174H334.827Z" fill="black"/>
<path d="M191.068 127.126V119.418H231.562V127.126H215.875V170.171H206.755V127.126H191.068Z" fill="black"/>
<path d="M60.8154 119.418H72.0663L87.1336 156.195H87.7284L102.796 119.418H114.047V170.171H105.224V135.304H104.753L90.727 170.023H84.135L70.1086 135.229H69.6377V170.171H60.8154V119.418Z" fill="black"/>
<path d="M41.7211 119.418H50.8408V155.104C50.8242 158.375 50.1304 161.192 48.7591 163.555C47.3878 165.901 45.4714 167.71 43.0097 168.982C40.5646 170.238 37.7147 170.865 34.46 170.865C31.4862 170.865 28.8098 170.337 26.4308 169.279C24.0682 168.205 22.1931 166.619 20.8053 164.521C19.4175 162.423 18.7236 159.813 18.7236 156.69H27.8681C27.8846 158.061 28.182 159.243 28.7602 160.234C29.355 161.225 30.1728 161.985 31.2136 162.514C32.2545 163.043 33.4522 163.307 34.807 163.307C36.2774 163.307 37.5247 163.001 38.549 162.39C39.5733 161.762 40.3498 160.837 40.8785 159.614C41.4237 158.392 41.7046 156.888 41.7211 155.104V119.418Z" fill="black"/>
<path d="M128.251 148.663C128.1 147.888 128.041 147.026 128.001 146.238C127.198 130.579 139.255 117.364 154.849 116.568L154.878 116.59C154.924 116.793 154.914 117.055 154.915 117.268L154.91 129.107L154.909 132.902C154.907 134.102 154.959 135.444 154.698 136.609C153.969 139.856 151.423 142.567 148.175 143.371C146.858 143.698 145.363 143.637 143.999 143.639L140.316 143.638L128.096 143.652C128.084 144.339 128.087 144.974 128.104 145.661L128.491 145.659L140.628 145.673L144.53 145.681C145.652 145.687 147.059 145.653 148.127 145.904C149.691 146.271 151.12 147.044 152.257 148.186C153.497 149.432 154.314 150.939 154.715 152.647C154.99 153.819 154.936 155.213 154.935 156.431L154.931 159.922L154.935 172.69C154.024 172.617 153.137 172.587 152.227 172.458C142.283 171.059 134.157 164.715 130.164 155.515C129.308 153.571 128.853 151.864 128.433 149.786C129.489 149.797 130.552 149.781 131.607 149.791C133.848 149.813 133.791 151.972 134.143 153.584C135.266 158.729 138.936 163.17 143.734 165.321C146.705 166.653 149.823 167.246 153.066 167.339C152.086 167.056 151.121 166.636 150.191 166.246C143.252 163.335 137.712 157.846 134.589 151.015C134.327 150.442 134.035 149.912 133.591 149.453C132.669 148.501 131.606 148.659 130.411 148.661L128.251 148.663ZM152.327 121.966C151.453 122.026 150.634 122.075 149.763 122.204C145.256 122.872 141.062 124.779 138.017 128.239C135.993 130.539 134.636 133.258 133.948 136.231C133.792 136.905 133.682 137.718 133.527 138.342C133.239 139.502 133.022 140.2 132.84 141.399C132.967 141.321 133.14 141.222 133.255 141.134L133.296 141.092C133.68 140.693 133.889 140.107 134.084 139.593C136.621 132.923 141.69 127.303 148.047 124.064C149.727 123.208 151.304 122.569 153.073 121.931C152.885 121.938 152.498 121.943 152.327 121.966ZM149.903 124.528C144.565 126.913 140.093 130.968 137.142 136.007C136.696 136.769 136.081 137.903 135.783 138.73C136.598 139.147 137.145 139.416 138.001 139.74C138.772 139.997 139.412 140.168 140.224 140.281C144.448 140.865 148.564 138.498 150.464 134.73C151.938 131.806 151.861 128.253 150.386 125.342C150.273 125.12 150.055 124.708 149.903 124.528ZM140.861 148.928C139.042 149.081 137.396 149.61 135.861 150.602C136.13 151.411 136.731 152.547 137.166 153.292C139.846 157.888 143.239 161.043 147.762 163.715C148.448 164.099 149.024 164.433 149.756 164.722C150.377 163.835 150.866 163.063 151.196 162.032C152.54 157.826 150.713 153.215 147.15 150.722C145.545 149.6 142.829 148.652 140.861 148.928Z" fill="#FF1616"/>
<path d="M183.814 143.559C182.294 143.441 179.965 143.512 178.385 143.526L170.653 143.548L167.427 143.547C166.577 143.545 165.685 143.56 164.842 143.465C161.279 143.061 157.953 140.279 157.186 136.733C156.909 135.455 156.962 134.128 156.965 132.826L156.968 129.328L156.968 116.559C158.081 116.622 159.096 116.695 160.202 116.872C166.068 117.809 171.318 120.544 175.518 124.728C179.456 128.651 182.17 133.66 183.294 139.098C183.558 140.377 183.818 142.244 183.814 143.559ZM158.919 121.961L158.961 121.981C159.39 122.186 159.91 122.362 160.362 122.547C161.405 122.976 162.427 123.364 163.433 123.884C168.893 126.711 173.37 131.089 176.338 136.47C176.692 137.112 177.048 137.858 177.348 138.473C177.556 138.9 178.466 141.174 178.682 141.376C178.357 135.859 176.78 130.618 172.517 126.845C168.837 123.587 163.894 122.066 159.033 121.945C158.995 121.95 158.957 121.956 158.919 121.961ZM161.915 124.545C160.758 126.566 160.237 128.246 160.324 130.605C160.575 137.406 167.297 142.012 173.813 139.762C174.895 139.359 175.119 139.155 176.057 138.654C175.583 137.457 174.936 136.406 174.25 135.315C171.498 130.944 167.503 127.332 162.897 124.999C162.576 124.837 162.247 124.68 161.915 124.545Z" fill="#FF1616"/>
<path d="M156.95 172.696L156.956 159.575L156.956 156.15C156.957 154.967 156.91 153.707 157.158 152.556C158.028 148.526 161.951 145.576 166.045 145.703C166.427 145.715 166.845 145.699 167.231 145.697L170.106 145.675C173.299 145.642 176.513 145.717 179.71 145.675C181.084 145.657 182.459 145.7 183.837 145.656C183.85 146.476 183.664 147.918 183.565 148.752C182.695 148.781 181.826 148.778 180.956 148.784C180.394 148.787 179.796 148.754 179.243 148.863C178.894 148.932 178.536 149.069 178.249 149.284C177.681 149.709 176.419 152.585 175.97 153.402C173.302 158.258 169.031 162.481 164.131 165.072C163.166 165.583 162.146 166.069 161.135 166.485C160.382 166.796 159.613 167.067 158.863 167.387C162.431 167.095 165.539 166.687 168.776 165.02C173.457 162.611 176.972 158.192 177.774 152.932C177.877 152.256 177.855 151.735 178.072 151.07C178.704 149.665 179.954 149.833 181.222 149.843C181.927 149.848 182.638 149.847 183.343 149.849C183.268 150.58 183.037 151.446 182.846 152.156C180.076 162.432 171.199 170.527 160.689 172.288C159.423 172.5 158.225 172.604 156.95 172.696ZM169.501 149.014C163.825 149.571 159.743 154.496 160.38 160.179C160.583 161.986 161.136 163.242 162.121 164.745C163.222 164.271 164.241 163.712 165.248 163.061C169.041 160.632 172.021 157.666 174.373 153.812C174.853 153.024 175.671 151.623 175.964 150.783C174.34 149.658 172.627 149.045 170.637 148.979C170.431 148.972 169.706 148.978 169.501 149.014Z" fill="#FF1616"/>
<path d="M241.288 148.663C241.137 147.888 241.078 147.026 241.038 146.238C240.236 130.579 252.292 117.364 267.887 116.568L267.915 116.59C267.961 116.793 267.951 117.055 267.953 117.268L267.947 129.107L267.946 132.902C267.945 134.102 267.997 135.444 267.735 136.609C267.006 139.856 264.46 142.567 261.212 143.371C259.895 143.698 258.4 143.637 257.037 143.639L253.353 143.638L241.133 143.652C241.121 144.339 241.124 144.974 241.141 145.661L241.528 145.659L253.665 145.673L257.567 145.681C258.69 145.687 260.096 145.653 261.164 145.904C262.728 146.271 264.157 147.044 265.294 148.186C266.535 149.432 267.351 150.939 267.752 152.647C268.027 153.819 267.973 155.213 267.972 156.431L267.968 159.922L267.972 172.69C267.061 172.617 266.174 172.587 265.264 172.458C255.32 171.059 247.194 164.715 243.201 155.515C242.345 153.571 241.89 151.864 241.47 149.786C242.526 149.797 243.589 149.781 244.644 149.791C246.885 149.813 246.828 151.972 247.18 153.584C248.303 158.729 251.973 163.17 256.772 165.321C259.742 166.653 262.861 167.246 266.103 167.339C265.123 167.056 264.158 166.636 263.228 166.246C256.289 163.335 250.749 157.846 247.626 151.015C247.364 150.442 247.072 149.912 246.628 149.453C245.706 148.501 244.643 148.659 243.448 148.661L241.288 148.663ZM265.364 121.966C264.49 122.026 263.671 122.075 262.8 122.204C258.293 122.872 254.099 124.779 251.054 128.239C249.03 130.539 247.673 133.258 246.985 136.231C246.829 136.905 246.719 137.718 246.564 138.342C246.276 139.502 246.059 140.2 245.877 141.399C246.004 141.321 246.177 141.222 246.292 141.134L246.333 141.092C246.717 140.693 246.926 140.107 247.122 139.593C249.658 132.923 254.727 127.303 261.084 124.064C262.764 123.208 264.341 122.569 266.11 121.931C265.922 121.938 265.535 121.943 265.364 121.966ZM262.94 124.528C257.602 126.913 253.13 130.968 250.179 136.007C249.733 136.769 249.119 137.903 248.82 138.73C249.636 139.147 250.182 139.416 251.038 139.74C251.809 139.997 252.45 140.168 253.261 140.281C257.485 140.865 261.601 138.498 263.501 134.73C264.975 131.806 264.898 128.253 263.424 125.342C263.31 125.12 263.093 124.708 262.94 124.528ZM253.898 148.928C252.079 149.081 250.433 149.61 248.898 150.602C249.168 151.411 249.768 152.547 250.203 153.292C252.883 157.888 256.276 161.043 260.799 163.715C261.485 164.099 262.061 164.433 262.793 164.722C263.414 163.835 263.903 163.063 264.233 162.032C265.577 157.826 263.75 153.215 260.187 150.722C258.582 149.6 255.866 148.652 253.898 148.928Z" fill="#FF1616"/>
<path d="M296.851 143.559C295.331 143.441 293.002 143.512 291.423 143.526L283.69 143.548L280.464 143.547C279.614 143.545 278.723 143.56 277.88 143.465C274.316 143.061 270.99 140.279 270.223 136.733C269.947 135.455 269.999 134.128 270.002 132.826L270.005 129.328L270.005 116.559C271.118 116.622 272.133 116.695 273.239 116.872C279.105 117.809 284.355 120.544 288.556 124.728C292.493 128.651 295.207 133.66 296.331 139.098C296.595 140.377 296.855 142.244 296.851 143.559ZM271.956 121.961L271.998 121.981C272.427 122.186 272.948 122.362 273.399 122.547C274.442 122.976 275.465 123.364 276.47 123.884C281.93 126.711 286.408 131.089 289.375 136.47C289.729 137.112 290.085 137.858 290.385 138.473C290.593 138.9 291.504 141.174 291.719 141.376C291.394 135.859 289.817 130.618 285.554 126.845C281.874 123.587 276.931 122.066 272.07 121.945C272.032 121.95 271.994 121.956 271.956 121.961ZM274.952 124.545C273.796 126.566 273.274 128.246 273.361 130.605C273.612 137.406 280.334 142.012 286.85 139.762C287.933 139.359 288.156 139.155 289.095 138.654C288.62 137.457 287.973 136.406 287.287 135.315C284.536 130.944 280.54 127.332 275.934 124.999C275.614 124.837 275.284 124.68 274.952 124.545Z" fill="#FF1616"/>
<path d="M269.987 172.696L269.994 159.575L269.993 156.15C269.994 154.967 269.947 153.707 270.195 152.556C271.065 148.526 274.988 145.576 279.083 145.703C279.464 145.715 279.882 145.699 280.268 145.697L283.143 145.675C286.336 145.642 289.55 145.717 292.748 145.675C294.121 145.657 295.497 145.7 296.874 145.656C296.887 146.476 296.701 147.918 296.602 148.752C295.733 148.781 294.863 148.778 293.993 148.784C293.431 148.787 292.834 148.754 292.28 148.863C291.931 148.932 291.573 149.069 291.286 149.284C290.718 149.709 289.456 152.585 289.007 153.402C286.339 158.258 282.068 162.481 277.168 165.072C276.203 165.583 275.183 166.069 274.173 166.485C273.419 166.796 272.65 167.067 271.9 167.387C275.468 167.095 278.576 166.687 281.813 165.02C286.495 162.611 290.009 158.192 290.811 152.932C290.914 152.256 290.892 151.735 291.109 151.07C291.742 149.665 292.991 149.833 294.259 149.843C294.964 149.848 295.675 149.847 296.38 149.849C296.305 150.58 296.074 151.446 295.883 152.156C293.113 162.432 284.236 170.527 273.726 172.288C272.46 172.5 271.262 172.604 269.987 172.696ZM282.538 149.014C276.862 149.571 272.781 154.496 273.417 160.179C273.62 161.986 274.173 163.242 275.158 164.745C276.259 164.271 277.278 163.712 278.285 163.061C282.079 160.632 285.059 157.666 287.41 153.812C287.89 153.024 288.708 151.623 289.001 150.783C287.377 149.658 285.664 149.045 283.674 148.979C283.468 148.972 282.743 148.978 282.538 149.014Z" fill="#FF1616"/>
</svg>
